<svg width="46" height="29" viewBox="0 0 46 29" fill="none" xmlns="http://www.w3.org/2000/svg">
<path d="M27.6281 28.4762C35.6283 28.4762 42.1137 22.1016 42.1137 14.2381C42.1137 6.37461 35.6283 0 27.6281 0C19.628 0 13.1426 6.37461 13.1426 14.2381C13.1426 22.1016 19.628 28.4762 27.6281 28.4762Z" fill="#A2C7D5"/>
<path d="M35.6003 19.7689C35.6003 19.7689 38.0644 24.8544 45.9997 23.4141C45.9997 23.4141 39.8118 23.3331 37.8767 18.5126L35.6003 19.7689Z" fill="#A2C7D5"/>
<path d="M19.7585 7.2025C19.7585 7.2025 20.237 6.48156 20.6515 6.48156H23.937L23.682 7.2025C23.682 7.2025 20.428 7.51605 20.3005 9.36586C20.173 11.2157 22.7885 11.1842 23.937 11.0589L23.1395 12.031C23.1395 12.031 20.5555 12.1249 20.045 10.9651C19.5345 9.80472 19.726 8.20606 21.5759 7.2025H19.7575H19.7585Z" fill="#2D334A"/>
<path d="M22.215 8.70731C22.215 8.70731 21.7365 9.20909 21.8483 9.39733C21.96 9.58556 22.4705 9.71087 22.4705 9.71087C22.4705 9.71087 23.0445 9.49118 22.949 9.20909C22.8536 8.92701 22.2156 8.70731 22.2156 8.70731H22.215Z" fill="#2D334A"/>
<path d="M22.3197 16.1098C22.3197 16.1098 18.91 22.3172 22.7564 24.6486C26.1742 26.7202 31.4344 24.1724 31.7382 20.4397H34.0341C34.0341 20.4397 34.224 20.1955 34.6417 19.7849C34.6417 19.7849 35.3839 20.4397 35.9155 20.5144C36.4472 20.589 37.5865 20.5144 37.5865 20.5144V15.3632C37.5865 15.3632 36.4472 14.9153 36.3713 15.3632C36.2953 15.8112 36.9029 16.6323 36.9029 16.6323V18.7973C36.9029 18.7973 35.0041 19.7678 35.0801 15.6618H34.3206C34.3206 15.6618 34.3965 19.0213 33.1053 18.872C31.8142 18.7227 31.4344 14.6167 30.9027 14.6913C30.3711 14.766 30.2474 16.0538 30.1167 16.3337C29.8628 16.8771 31.2066 17.8268 30.9787 19.2452C30.7861 20.4456 29.0229 24.2566 25.1256 23.4168C23.0906 22.9785 21.8965 20.8258 22.2757 18.8122C22.3962 18.174 22.6219 17.4461 23.0038 16.6318C23.0038 16.6318 23.1557 15.512 22.3202 16.1092L22.3197 16.1098Z" fill="#D1DFE5"/>
<path d="M30.4709 4.8461C30.4709 4.8461 30.0651 5.2247 29.5785 5.14525C29.0919 5.0658 28.0579 4.74639 27.9358 5.88272C27.8143 7.01853 29.5172 6.67992 30.1053 6.32105C30.6934 5.96218 31.6466 5.60651 31.8088 5.75475V6.54661C31.8088 6.54661 27.8826 7.95597 27.9298 9.55036C27.9765 11.1448 29.3349 11.3042 30.0451 11.3442C30.7547 11.3842 32.7012 11.125 32.7012 11.125C32.7012 11.125 32.762 12.0022 31.6466 12.3605C30.5312 12.7194 27.5305 12.3803 27.2061 10.5667C26.8817 8.75317 28.3617 7.55711 28.3617 7.55711C28.3617 7.55711 26.7477 7.1785 27.1595 6.06243C27.5707 4.94635 28.2201 4.22861 29.4564 4.20888C30.6934 4.18915 30.4704 4.84664 30.4704 4.84664L30.4709 4.8461Z" fill="white"/>
<path d="M28.7675 2.19482C28.7675 2.19482 28.3215 2.77286 28.5239 2.97229C28.7268 3.17172 29.0306 3.57005 29.4565 3.29117C29.8823 3.01228 30.1677 2.65501 29.9838 2.47424C29.7999 2.29347 28.934 1.93887 28.7669 2.19536L28.7675 2.19482Z" fill="white"/>
<path d="M2.2763 17.9627C2.2763 17.5145 2.2377 17.0824 2.16602 16.6772H17.1211C17.8379 16.6772 18.4188 17.2528 18.4188 17.9623C18.4188 18.6718 17.8379 19.2474 17.1211 19.2474H2.16638C2.23807 18.8425 2.27666 18.4104 2.27666 17.9627H2.2763Z" fill="white"/>
<path d="M17.1207 16.6772H8.20898C8.92581 16.6772 9.50662 17.2528 9.50662 17.9623C9.50662 18.6718 8.92581 19.2474 8.20898 19.2474H17.1207C17.8376 19.2474 18.4184 18.6718 18.4184 17.9623C18.4184 17.2528 17.8376 16.6772 17.1207 16.6772Z" fill="#A1BFCA"/>
<path d="M16.2155 17.961C16.2155 18.364 15.8857 18.6905 15.4788 18.6905H11.5957C11.7402 18.4834 11.8251 18.2318 11.8251 17.961C11.8251 17.6901 11.7405 17.4386 11.5957 17.2314H15.4788C15.8857 17.2314 16.2155 17.5584 16.2155 17.961Z" fill="#88AEBC"/>
<path d="M17.6647 17.961C17.6647 18.364 17.3349 18.6905 16.928 18.6905H13.0449C13.1894 18.4834 13.2743 18.2318 13.2743 17.961C13.2743 17.6901 13.1898 17.4386 13.0449 17.2314H16.928C17.3349 17.2314 17.6647 17.5584 17.6647 17.961Z" fill="#88AEBC"/>
<path d="M1.80967 16.4287H17.1868C18.0392 16.4287 18.7329 17.1156 18.7329 17.9599C18.7329 18.8041 18.0392 19.4914 17.1868 19.4914H1.80967C1.67108 19.4914 1.55859 19.38 1.55859 19.2427C1.55859 19.1055 1.67108 18.9941 1.80967 18.9941H17.1868C17.7624 18.9941 18.2308 18.5303 18.2308 17.9602C18.2308 17.3901 17.7624 16.9264 17.1868 16.9264H1.80967C1.67108 16.9264 1.55859 16.815 1.55859 16.6777C1.55859 16.5405 1.67108 16.4291 1.80967 16.4291V16.4287Z" fill="#A1BFCA"/>
<path d="M0.214844 26.3674C0.214844 25.3047 1.05464 24.4434 2.09074 24.4434H19.1989V24.468C19.051 25.0303 18.9679 25.6635 18.9679 26.3333C18.9679 27.0032 19.051 27.636 19.1989 28.1984V28.2914H2.09074C1.05464 28.2914 0.214844 27.4301 0.214844 26.3674Z" fill="white"/>
<path d="M8.54791 26.3674C8.54791 25.3047 9.38771 24.4434 10.4238 24.4434H2.09074C1.05464 24.4434 0.214844 25.3047 0.214844 26.3674C0.214844 27.4301 1.05464 28.2914 2.09074 28.2914H10.4238C9.38771 28.2914 8.54791 27.4301 8.54791 26.3674Z" fill="#616677"/>
<path d="M2.13566 24.1421H19.4719C19.6058 24.1421 19.7143 24.2534 19.7143 24.3907C19.7143 24.5281 19.6058 24.6394 19.4719 24.6394H2.13566C1.22539 24.6394 0.484841 25.3989 0.484841 26.3326C0.484841 27.2662 1.22539 28.0258 2.13566 28.0258H19.4719C19.6058 28.0258 19.7143 28.137 19.7143 28.2744C19.7143 28.4118 19.6058 28.523 19.4719 28.523H2.13566C0.958244 28.523 0 27.5406 0 26.3326C0 25.1245 0.957875 24.1421 2.13566 24.1421Z" fill="#616677"/>
<path d="M3.19037 26.3326C3.19037 25.123 4.16155 24.1421 5.3593 24.1421H3.76267C2.56493 24.1421 1.59375 25.1227 1.59375 26.3326C1.59375 27.5425 2.56493 28.523 3.76267 28.523H5.3593C4.16155 28.523 3.19037 27.5425 3.19037 26.3326Z" fill="#464B60"/>
<path d="M5.39545 26.3326C5.39545 25.123 6.36663 24.1421 7.56437 24.1421H5.96775C4.77001 24.1421 3.79883 25.1227 3.79883 26.3326C3.79883 27.5425 4.77001 28.523 5.96775 28.523H7.56437C6.36663 28.523 5.39545 27.5425 5.39545 26.3326Z" fill="#464B60"/>
<path d="M22.4997 22.1583C22.4997 23.2205 21.6599 24.0813 20.6238 24.0813H3.51562V24.0568C3.66359 23.4947 3.74661 22.8619 3.74661 22.1924C3.74661 21.5229 3.66359 20.8905 3.51562 20.3284V20.2354H20.6238C21.6599 20.2354 22.4997 21.0962 22.4997 22.1583Z" fill="white"/>
<path d="M14.165 22.1608C14.165 23.2229 13.3252 24.0838 12.2891 24.0838H20.6221C21.6582 24.0838 22.498 23.2229 22.498 22.1608C22.498 21.0987 21.6582 20.2378 20.6221 20.2378H12.2891C13.3252 20.2378 14.165 21.0987 14.165 22.1608Z" fill="#FBA846"/>
<path d="M20.5786 24.3805H3.24242C3.10848 24.3805 3 24.2693 3 24.132C3 23.9947 3.10848 23.8835 3.24242 23.8835H20.5786C21.4889 23.8835 22.2294 23.1244 22.2294 22.1912C22.2294 21.2581 21.4889 20.499 20.5786 20.499H3.24242C3.10848 20.499 3 20.3878 3 20.2505C3 20.1132 3.10848 20.002 3.24242 20.002H20.5786C21.756 20.002 22.7143 20.9839 22.7143 22.1912C22.7143 23.3986 21.7564 24.3805 20.5786 24.3805Z" fill="#FBA846"/>
<path d="M19.7033 22.176C19.7033 23.3773 18.7528 24.3517 17.5809 24.3517H14.3516C15.5238 24.3517 16.4739 23.3773 16.4739 22.176C16.4739 20.9747 15.5234 20 14.3516 20H17.5809C18.7531 20 19.7033 20.9744 19.7033 22.176Z" fill="#F98A05"/>
<path d="M21.518 22.176C21.518 20.9744 20.5675 20 19.3956 20H18.6543C19.8266 20 20.7767 20.9744 20.7767 22.176C20.7767 23.3777 19.8262 24.3517 18.6543 24.3517H19.3956C20.5679 24.3517 21.518 23.3773 21.518 22.176Z" fill="#F98A05"/>
</svg>
