<svg width="54" height="54" viewBox="0 0 54 54" fill="none" xmlns="http://www.w3.org/2000/svg">
<g clip-path="url(#clip0_4941_806)">
<rect x="2" y="2" width="50" height="50" rx="10" fill="#FBFBFB"/>
<path fill-rule="evenodd" clip-rule="evenodd" d="M-2.49912 11.994C6.71718 8.19494 10.539 -5.93548 29.2244 -5.99979C47.9098 -6.06408 64.2253 8.76961 62.9275 29.922L36.5062 29.9208L-17 30C-15.4061 16.5564 -4.79807 12.9416 -2.49912 11.994Z" fill="url(#paint0_linear_4941_806)"/>
<path fill-rule="evenodd" clip-rule="evenodd" d="M29.4185 26.2606H26.0795C26.1692 25.9493 26.252 25.6361 26.328 25.3209L26.3313 25.1381V23.5976H26.3367C26.3624 22.3587 26.3881 21.1196 26.4146 19.8807C26.5314 19.8482 26.6541 19.7505 26.7053 19.6425C26.7598 19.5273 26.8148 19.4122 26.8694 19.2971C26.9402 19.1475 26.8374 19.0469 26.6846 19.0469H26.3519C26.3703 18.4783 26.3885 17.9095 26.4071 17.3409L26.7961 17.3413C26.7237 16.731 26.6262 16.124 26.5039 15.5216C26.4756 15.3131 26.3713 15.1218 26.2103 14.9841C25.7786 14.5779 25.1763 14.371 24.6896 13.8878V13.7295C24.7941 13.7054 24.8686 13.6473 24.8686 13.5703C24.8686 13.4932 24.776 13.421 24.6522 13.4042L24.6491 13.3287C24.7086 13.3147 24.7508 13.28 24.7508 13.2377C24.7508 13.1953 24.7051 13.1578 24.6417 13.1449L24.6232 12.6825C24.6227 12.6711 24.6168 12.6232 24.6003 12.6232C24.5838 12.6232 24.5779 12.6712 24.5774 12.6825L24.559 13.1422C24.4875 13.1516 24.4338 13.1916 24.4338 13.2376C24.4338 13.2836 24.4838 13.3208 24.5514 13.3319L24.5486 13.4023C24.4168 13.4152 24.3161 13.4898 24.3161 13.5703C24.3161 13.6508 24.3976 13.7111 24.5099 13.7326V13.892C23.7797 14.6134 22.7917 14.7178 22.5091 15.8048C22.4655 15.9727 22.4484 16.1438 22.4568 16.3131C22.3058 16.3179 22.2142 16.4177 22.283 16.5631C22.3375 16.6782 22.3926 16.7934 22.447 16.9085C22.4992 17.0185 22.6201 17.1155 22.7391 17.1473L22.8004 19.0468H22.4682C22.3136 19.0468 22.2114 19.1453 22.283 19.297C22.3375 19.4121 22.3926 19.5272 22.447 19.6424C22.4991 19.7521 22.6194 19.8485 22.7379 19.8808C22.7608 20.9776 22.7836 22.0743 22.807 23.171V23.6913C22.79 23.617 22.7719 23.5427 22.7527 23.4688C21.9424 20.3507 19.8566 19.01 17.5931 17.6223C17.537 17.2409 17.4706 16.8611 17.3938 16.4833C17.3672 16.2859 17.2684 16.1051 17.116 15.9748C16.7076 15.5904 16.1378 15.3947 15.6772 14.9375V14.7878C15.7763 14.765 15.8467 14.7101 15.8467 14.6371C15.8467 14.5643 15.7591 14.496 15.6418 14.48L15.6391 14.4087C15.6953 14.3954 15.7353 14.3625 15.7353 14.3225C15.7353 14.2824 15.692 14.2469 15.632 14.2347L15.6144 13.7974C15.614 13.7866 15.6085 13.7413 15.5929 13.7413C15.5772 13.7413 15.5718 13.7866 15.5713 13.7974L15.5539 14.2322C15.4861 14.2412 15.4353 14.279 15.4353 14.3225C15.4353 14.366 15.4826 14.4012 15.5466 14.4117L15.5439 14.4783C15.4192 14.4905 15.324 14.561 15.324 14.6371C15.324 14.7133 15.4011 14.7705 15.5073 14.7908V14.9416C15.22 15.2255 14.8906 15.4083 14.5844 15.599C14.2584 15.3353 13.939 15.0529 13.63 14.7462V14.0263C14.1061 13.9163 14.4448 13.6526 14.4448 13.3019C14.4448 12.9512 14.0234 12.6229 13.46 12.5464L13.4462 12.203C13.7169 12.1392 13.909 11.9814 13.909 11.7885C13.909 11.5955 13.7008 11.4248 13.4125 11.3666L13.3283 9.26317C13.3253 9.18921 13.3112 9.12138 13.2923 9.07282C13.2719 9.01993 13.2481 8.9934 13.2243 8.9934C13.2006 8.9934 13.1768 9.01991 13.1564 9.07282C13.1376 9.12136 13.1235 9.18931 13.1205 9.26317L13.0365 11.3544C12.7111 11.3973 12.4669 11.5791 12.4669 11.7885C12.4669 11.9979 12.6939 12.167 13.0019 12.2176L12.9891 12.5377C12.3895 12.5964 11.931 12.9355 11.931 13.3018C11.931 13.6682 12.3019 13.9424 12.8128 14.0406V14.7656C11.3852 16.1763 9.74132 17.0681 8.22832 18.0191C7.19758 17.3791 6.15533 16.6845 5.21379 15.7497V15.0687C5.66412 14.9646 5.98456 14.7151 5.98456 14.3833C5.98456 14.0514 5.58587 13.7409 5.05282 13.6684L5.03979 13.3437C5.29587 13.2832 5.47764 13.1341 5.47764 12.9514C5.47764 12.7689 5.28084 12.6074 5.00806 12.5524L4.92829 10.5621C4.92549 10.4923 4.91206 10.4281 4.89423 10.3822C4.87482 10.3321 4.85237 10.3071 4.82996 10.3071C4.80755 10.3071 4.78502 10.3321 4.76562 10.3822C4.74779 10.4281 4.73448 10.4924 4.73178 10.5621L4.65229 12.5408C4.3444 12.5813 4.11326 12.7534 4.11326 12.9514C4.11326 13.1496 4.32809 13.3095 4.61948 13.3573L4.60735 13.6603C4.04011 13.7158 3.60637 14.0367 3.60637 14.3833C3.60637 14.7298 3.95722 14.9892 4.44058 15.0822V15.7682C1.29732 18.874 -2.95553 19.3226 -4.17174 24.0022C-4.36565 24.7483 -4.43812 25.5088 -4.39338 26.2605H-6.18196C-6.18256 23.8731 -6.18336 21.0563 -6.18418 17.8107C-6.17436 17.5677 -6.25443 17.3208 -6.42813 17.1224C-7.38917 16.0207 -8.1002 14.9605 -8.56115 13.9419C-9.21121 12.5053 -9.35843 11.1501 -9.0027 9.87689C-8.6371 8.56804 -7.73715 7.30318 -6.30292 6.08244C-4.83776 4.83527 -2.83074 3.64746 -0.282274 2.51886C-0.263669 2.51152 -0.24504 2.50381 -0.226609 2.49539C5.71954 -0.236804 11.3664 -5.54295 11.6181 -5.55273C11.8982 -5.55224 17.5169 -0.236804 23.4631 2.49539C23.4814 2.50379 23.5 2.51149 23.5187 2.51886C26.0671 3.64746 28.0741 4.83527 29.5393 6.08244C30.9735 7.3032 31.8735 8.56804 32.2392 9.87689C32.5948 11.1501 32.4475 12.5053 31.7976 13.9419C31.3366 14.9605 30.6256 16.0207 29.6646 17.1224C29.4908 17.3208 29.4109 17.5677 29.4205 17.8107C29.4197 21.0563 29.419 23.873 29.4184 26.2605L29.4185 26.2606Z" fill="url(#paint1_linear_4941_806)"/>
<path fill-rule="evenodd" clip-rule="evenodd" d="M-2.05413 33.0815L5.80365 33.7112V33.7161H5.86532V33.7112L13.7231 33.0815C14.2895 32.2672 14.6826 31.3748 14.894 30.4497V32.0771L14.8352 33.8299L16.1652 34.0326C17.0885 32.3725 17.7814 30.5974 18.2254 28.7548L18.2285 28.5819V27.1245H18.2335C18.258 25.9522 18.2822 24.7801 18.3073 23.6079C18.4179 23.5772 18.5339 23.4848 18.5823 23.3824C18.6339 23.2736 18.686 23.1646 18.7375 23.0557C18.8046 22.9142 18.7072 22.8191 18.5627 22.8191H18.2479C18.2652 22.281 18.2825 21.743 18.3002 21.205L18.6682 21.2054C18.5998 20.628 18.5075 20.0536 18.3917 19.4837C18.365 19.2864 18.2662 19.1055 18.1139 18.9752C17.7055 18.5909 17.1356 18.3951 16.675 17.938V17.7883C16.7742 17.7654 16.8445 17.7106 16.8445 17.6376C16.8445 17.5647 16.7569 17.4964 16.6397 17.4805L16.6369 17.4091C16.6932 17.3958 16.7331 17.363 16.7331 17.3229C16.7331 17.2828 16.6899 17.2473 16.6299 17.2351L16.6123 16.7978C16.6119 16.787 16.6064 16.7417 16.5908 16.7417C16.575 16.7417 16.5697 16.787 16.5691 16.7978L16.5517 17.2327C16.4839 17.2416 16.4332 17.2795 16.4332 17.323C16.4332 17.3665 16.4804 17.4017 16.5445 17.4122L16.5418 17.4787C16.4171 17.491 16.3218 17.5615 16.3218 17.6376C16.3218 17.7137 16.3989 17.7709 16.5052 17.7913V17.942C15.8143 18.6246 14.8795 18.7233 14.6122 19.7517C14.571 19.9106 14.5548 20.0725 14.5627 20.2327C14.4199 20.2372 14.3332 20.3315 14.3984 20.4692C14.4499 20.5781 14.502 20.687 14.5536 20.796C14.6027 20.9 14.7173 20.9917 14.8299 21.0219L14.8879 22.8191H14.5736C14.4273 22.8191 14.3306 22.9123 14.3984 23.0557C14.4499 23.1646 14.502 23.2736 14.5536 23.3824C14.6027 23.4863 14.7166 23.5776 14.8288 23.6082C14.8503 24.6458 14.872 25.6835 14.8939 26.721V27.2132C14.8779 27.1429 14.8608 27.0727 14.8427 27.0027C13.6242 22.3139 9.3567 21.8728 6.21176 18.7502V18.0692C6.66209 17.9651 6.98253 17.7156 6.98253 17.3838C6.98253 17.052 6.58384 16.7414 6.05079 16.6689L6.03776 16.3442C6.29384 16.2837 6.47561 16.1346 6.47561 15.952C6.47561 15.7694 6.27881 15.6079 6.00603 15.5529L5.92626 13.5626C5.92346 13.4928 5.91003 13.4286 5.8922 13.3827C5.85346 13.2825 5.80242 13.2827 5.76359 13.3827C5.74576 13.4286 5.73245 13.4929 5.72975 13.5626L5.65026 15.5413C5.34237 15.5818 5.11123 15.7539 5.11123 15.9519C5.11123 16.1501 5.32607 16.3101 5.61745 16.3578L5.60532 16.6608C5.03808 16.7164 4.60434 17.0372 4.60434 17.3838C4.60434 17.7303 4.95519 17.9897 5.43855 18.0827V18.7688C2.29529 21.8745 -1.95755 22.3231 -3.17377 27.0027C-3.71452 29.0835 -3.31101 31.2747 -2.05416 33.0816L-2.05413 33.0815Z" fill="#446692"/>
<path fill-rule="evenodd" clip-rule="evenodd" d="M15.9938 24.2163H15.9939C16.1688 24.2163 16.312 24.3576 16.312 24.5306V26.0426C16.312 26.2155 16.1688 26.3568 15.9939 26.3568H15.9938C15.8189 26.3568 15.6758 26.2155 15.6758 26.0426V24.5306C15.6758 24.3576 15.8189 24.2163 15.9938 24.2163Z" fill="#6F9BD2"/>
<path fill-rule="evenodd" clip-rule="evenodd" d="M16.9372 24.2163H16.9372C17.1122 24.2163 17.2552 24.3576 17.2552 24.5306V26.0426C17.2552 26.2155 17.1122 26.3568 16.9372 26.3568H16.9372C16.7623 26.3568 16.6191 26.2155 16.6191 26.0426V24.5306C16.6191 24.3576 16.7623 24.2163 16.9372 24.2163Z" fill="#6F9BD2"/>
<path fill-rule="evenodd" clip-rule="evenodd" d="M17.6013 24.2163C17.7763 24.2163 17.9194 24.3576 17.9194 24.5306V26.0426C17.9194 26.2155 17.7763 26.3568 17.6013 26.3568C17.4263 26.3568 17.2832 26.2155 17.2832 26.0426V24.5306C17.2832 24.3576 17.4263 24.2163 17.6013 24.2163Z" fill="#6F9BD2"/>
<path fill-rule="evenodd" clip-rule="evenodd" d="M15.9094 21.0464H15.9095C16.0402 21.0464 16.147 21.1519 16.147 21.2809V22.4103C16.147 22.5394 16.0402 22.6449 15.9095 22.6449H15.9094C15.7788 22.6449 15.6719 22.5394 15.6719 22.4103V21.2809C15.6719 21.1519 15.7788 21.0464 15.9094 21.0464Z" fill="#6F9BD2"/>
<path fill-rule="evenodd" clip-rule="evenodd" d="M16.6125 21.0464C16.7433 21.0464 16.8502 21.1519 16.8502 21.2809V22.4103C16.8502 22.5394 16.7433 22.6449 16.6125 22.6449C16.4819 22.6449 16.375 22.5394 16.375 22.4103V21.2809C16.375 21.1519 16.4819 21.0464 16.6125 21.0464Z" fill="#6F9BD2"/>
<path fill-rule="evenodd" clip-rule="evenodd" d="M17.3098 21.0464C17.4405 21.0464 17.5474 21.1519 17.5474 21.2809V22.4103C17.5474 22.5394 17.4405 22.6449 17.3098 22.6449C17.1791 22.6449 17.0723 22.5394 17.0723 22.4103V21.2809C17.0723 21.1519 17.1791 21.0464 17.3098 21.0464Z" fill="#6F9BD2"/>
<path fill-rule="evenodd" clip-rule="evenodd" d="M57.5284 29.2618L19.51 29.2607L-18.3887 29.334C-19.2896 35.9394 -17.3104 41.7654 -11.8167 47.1012C-6.32293 52.437 -0.340622 57.314 16.344 58.1464C22.7116 58.4641 28.6813 58.7137 33.9957 57.1827C47.2029 53.3778 56.3631 43.9417 57.5284 29.2618Z" fill="#72ADC0"/>
<path d="M33.1388 52.2388C33.1388 52.2388 33.1388 52.2388 33.1387 52.2387H33.139L33.1388 52.2388H33.1388ZM47.2168 36.412V36.4116C47.2168 36.4117 47.2168 36.4117 47.2168 36.4117C47.2168 36.4117 47.2168 36.4119 47.2168 36.412Z" fill="#4674B8"/>
<path fill-rule="evenodd" clip-rule="evenodd" d="M33.1388 52.2397C36.4152 50.8191 39.2586 49.0233 41.5198 46.948C39.2779 49.0582 36.4845 50.8219 33.1387 52.2398L33.1388 52.2397ZM46.2597 40.3475C46.5624 39.5949 46.8005 38.8244 46.9689 38.041C46.8008 38.8275 46.5637 39.5992 46.26 40.3471L46.2597 40.3475V40.3475Z" fill="url(#paint2_linear_4941_806)"/>
<path fill-rule="evenodd" clip-rule="evenodd" d="M42.7164 56C27.1067 46.6609 10.8942 37.9223 -5 29.0001V29C-5 29.0001 9.49633 29 38.4891 29C38.4891 29 51.7802 34.5457 61 39.4279C57.5508 46.0285 53.7123 51.4961 42.7164 56V56Z" fill="url(#paint3_linear_4941_806)"/>
<path fill-rule="evenodd" clip-rule="evenodd" d="M25.1084 29.2017C29.9897 30.8404 32.207 31.359 32.207 31.359C35.8147 32.9731 39.5106 37.1657 44.1805 39.659C45.3137 40.2975 45.614 40.7541 44.1756 41.0788C38.8299 42.386 33.969 43.6793 29.5925 44.9587C27.7806 45.5461 26.4372 46.3478 24.4968 46.7508C24.4968 46.7508 21.3668 47.6763 15.1072 49.5266C14.897 49.5887 14.6764 49.6509 14.4444 49.7136L4.06347 52.4861C2.6001 52.8482 1.39359 52.6308 0.443947 51.8342C-2.40758 49.2891 -5.3286 47.2769 -7.82565 45.1923C-8.76409 44.4089 -10.9813 42.298 -11.7974 41.5966C-12.7172 40.806 -12.5633 40.1943 -11.3643 39.8847C-4.43212 38.0213 -0.965924 37.0895 -0.965924 37.0895C1.74826 36.3613 3.53757 35.536 4.42737 34.8109C5.65379 33.8223 6.97283 33.4895 8.49494 33.4557C8.96012 33.4455 9.36721 33.4933 9.83809 33.4383C12.9713 33.072 22.3496 29.821 25.1084 29.2017H25.1084Z" fill="#446692"/>
<path fill-rule="evenodd" clip-rule="evenodd" d="M24.5441 28.6211C29.2232 30.2597 31.3488 30.7784 31.3488 30.7784C34.8072 32.3926 38.35 36.585 42.8263 39.0783C43.9126 39.7168 44.2006 40.1736 42.8217 40.4981C37.6975 41.8054 33.0377 43.0987 28.8425 44.3781C27.1056 44.9654 25.8178 45.7672 23.9577 46.1702C22.6201 46.4602 21.7952 46.339 21.0716 46.0041C20.1569 45.5764 19.2866 45.9049 18.398 47.0581C17.6116 47.9621 16.4729 48.5269 14.3216 49.133L4.37049 51.9055C2.96779 52.2675 1.81112 52.0503 0.900711 51.2536C-1.83273 48.7086 -4.63274 46.6963 -7.02644 44.6117C-7.92594 43.8282 -10.0513 41.7174 -10.8336 41.0159C-11.7154 40.2254 -11.5679 39.6136 -10.4185 39.3041C-3.7733 37.4406 -0.450768 36.509 -0.450768 36.509C2.15116 35.7806 3.86627 34.9555 4.71921 34.2302C5.89489 33.2416 7.15937 32.9089 8.61851 32.8752C9.06436 32.8649 9.45454 32.9127 9.90599 32.8578C12.9095 32.4915 21.8994 29.2404 24.5441 28.6211L24.5441 28.6211Z" fill="#E3E1E2"/>
<path fill-rule="evenodd" clip-rule="evenodd" d="M28.8638 33.1821C21.5711 37.031 18.9655 37.2096 14.3878 33.7596C6.44034 34.5292 8.55796 39.7093 11.4461 40.3661C12.1871 40.6105 12.6569 41.2056 12.8554 42.1515C13.0421 44.3095 15.0777 46.1456 19.1317 44.4339C20.5298 43.8892 21.6208 43.2664 22.9859 43.4543C26.0503 43.6787 29.0718 42.6395 31.3324 40.5837C32.3342 39.702 33.3299 39.745 34.5566 39.6434C36.0213 39.5216 35.8299 38.3844 34.1842 38.0238C32.4368 37.6946 31.0201 36.8989 30.085 35.8445C29.3976 35.0693 29.6961 33.9962 28.8638 33.1822L28.8638 33.1821Z" fill="#D6D4D2"/>
<path fill-rule="evenodd" clip-rule="evenodd" d="M33.0332 32.7432C25.7404 36.5919 20.1993 37.3349 15.6216 33.8848C11.5641 35.6649 12.7274 39.2703 15.6154 39.9272C16.3565 40.1716 16.8263 40.7667 17.0248 41.7125C17.2114 43.8705 19.2471 45.7066 23.301 43.9949C24.6993 43.4503 25.7901 42.8274 27.1554 43.0151C30.2196 43.2398 33.2412 42.2006 35.5018 40.1447C36.5035 39.263 37.4993 39.306 38.7259 39.2044C40.1906 39.0828 39.9993 37.9455 38.3536 37.5848C36.6061 37.2557 35.1894 36.4599 34.2545 35.4054C33.567 34.6304 33.8655 33.5571 33.0333 32.7432H33.0332Z" fill="#BDBBBA"/>
<path d="M23.8514 29.4902C28.0224 30.9508 29.9066 31.4107 29.9122 31.412L29.9255 31.4153L29.9377 31.4209C31.5057 32.1528 33.0852 33.4665 34.7807 34.8766C36.4425 36.2587 38.2168 37.7344 40.1901 38.8336L40.1928 38.8352C40.7122 39.1405 41.0423 39.4129 41.081 39.6688C41.1244 39.9568 40.8514 40.1821 40.1512 40.347L40.1511 40.3466C37.872 40.9281 35.6906 41.5079 33.6071 42.0862C31.527 42.6635 29.5535 43.2369 27.6863 43.8062V43.8064C27.0873 44.0089 26.5514 44.2388 26.0228 44.4655C25.1723 44.8302 24.3398 45.1874 23.3116 45.4101C22.7014 45.5423 22.2062 45.5806 21.7796 45.5476C21.348 45.5141 20.9872 45.4079 20.6499 45.2518H20.6495C20.2766 45.0774 19.9138 45.0568 19.555 45.1967C19.1828 45.3419 18.8094 45.6582 18.4282 46.1528L18.4234 46.1586C18.061 46.5752 17.6184 46.9133 17.0199 47.2162C16.4284 47.5157 15.6866 47.78 14.7195 48.0524H14.719L5.83718 50.5271L5.83461 50.5275C5.18893 50.694 4.59826 50.727 4.06263 50.6265C3.52208 50.5248 3.0394 50.2881 2.6145 49.9163L2.6113 49.9138C1.16194 48.5642 -0.308644 47.3828 -1.71134 46.2557C-2.67131 45.4845 -3.59982 44.7385 -4.46089 43.9887C-4.90774 43.5994 -5.70003 42.8367 -6.43417 42.1302C-7.01075 41.5753 -7.55128 41.055 -7.86049 40.7778C-8.14905 40.5191 -8.32397 40.2747 -8.38589 40.05C-8.41742 39.9359 -8.42045 39.8268 -8.39532 39.7229C-8.36988 39.6185 -8.31699 39.5222 -8.23672 39.4348C-8.07905 39.2633 -7.81153 39.1241 -7.43545 39.0228L-7.4356 39.0226L1.4611 36.5278C2.56431 36.219 3.48665 35.8911 4.23068 35.5632C5.03821 35.2073 5.63477 34.8518 6.02368 34.5211H6.02468C6.56424 34.0676 7.12347 33.7645 7.71498 33.5712C8.30367 33.3788 8.9244 33.2952 9.58906 33.2798H9.58956C9.7371 33.2765 9.87654 33.28 10.0143 33.2835C10.2471 33.2894 10.4752 33.2952 10.7251 33.2648C12.3688 33.0644 16.0562 31.8823 19.1893 30.878C21.136 30.2539 22.8699 29.6979 23.7753 29.486L23.8137 29.4771L23.8514 29.4902L23.8514 29.4902ZM29.8337 31.6676C29.6558 31.6233 27.7551 31.1394 23.7993 29.7552C22.8898 29.9723 21.1844 30.5189 19.2728 31.1317C16.1275 32.14 12.4257 33.3268 10.7578 33.5301C10.4943 33.5622 10.2535 33.5561 10.008 33.5498C9.87312 33.5464 9.73658 33.5429 9.59534 33.5462C8.95781 33.561 8.36289 33.6409 7.79956 33.8251C7.23898 34.0082 6.70958 34.2948 6.19983 34.7233L6.20026 34.7238C5.79385 35.0695 5.17482 35.439 4.34069 35.8066C3.58392 36.1401 2.64901 36.4726 1.53407 36.7847L-7.36255 39.2796H-7.36365C-7.68862 39.3671 -7.91328 39.4801 -8.03684 39.6144C-8.0865 39.6685 -8.11856 39.7254 -8.13297 39.7846C-8.14742 39.8445 -8.1451 39.9098 -8.12574 39.98C-8.07753 40.1545 -7.92876 40.3559 -7.67864 40.5803C-7.37095 40.856 -6.82658 41.38 -6.24599 41.9389C-5.51766 42.6399 -4.73159 43.3966 -4.28214 43.788C-3.41327 44.5447 -2.49273 45.2842 -1.54099 46.0489C-0.133595 47.1796 1.34199 48.3651 2.79638 49.7194L2.79625 49.7194C3.18314 50.0571 3.62189 50.2719 4.11237 50.3641C4.60816 50.4573 5.15892 50.4259 5.76424 50.27V50.2698L14.6455 47.7955L14.6455 47.7953C15.5985 47.5269 16.3249 47.2686 16.8971 46.979C17.4607 46.6937 17.8766 46.377 18.2155 45.9882C18.6268 45.4551 19.0378 45.111 19.4557 44.948C19.8875 44.7796 20.3214 44.8031 20.7648 45.0104L20.7647 45.0107C21.0731 45.1533 21.4035 45.2505 21.7996 45.2812C22.2009 45.3122 22.6709 45.2753 23.2545 45.1488C24.261 44.9307 25.0796 44.5796 25.9159 44.2209C26.4534 43.9904 26.998 43.7568 27.5996 43.5534L27.6033 43.5524C29.4794 42.9803 31.4564 42.4057 33.534 41.8291C35.6084 41.2534 37.7925 40.6729 40.0861 40.0878L40.0889 40.0867C40.6193 39.9619 40.8331 39.8383 40.8135 39.7075C40.789 39.5452 40.5067 39.3294 40.058 39.0655C38.0623 37.9539 36.2782 36.4701 34.6073 35.0804C32.9307 33.6859 31.3687 32.3869 29.8337 31.6675L29.8337 31.6676Z" fill="#FEFEFE"/>
<path fill-rule="evenodd" clip-rule="evenodd" d="M17.5987 40.287C17.4975 40.4204 17.4791 40.5567 17.4981 40.6981C15.3585 40.7926 14.0588 40.2557 13.2004 38.83C12.8376 38.2275 12.6876 37.5693 12.6956 36.9273C12.73 34.1116 16.0012 33.0255 21.1933 29.8447C25.5788 33.1397 28.3737 34.9146 29.367 34.6142C28.8471 36.1213 27.4149 37.1354 25.803 37.1376C22.2644 38.4171 19.9809 39.2429 18.9523 39.6148C18.5632 39.7555 17.8435 39.9643 17.5987 40.287V40.287Z" fill="#9F3E26"/>
<path fill-rule="evenodd" clip-rule="evenodd" d="M22.5331 31.9917C25.704 33.3888 23.6696 36.1595 16.4302 40.3039C14.2978 40.0593 13.5954 38.7725 13.8748 38.265C13.9749 38.083 14.2358 37.9234 14.5326 38.1029C15.0884 38.4594 15.7747 38.6071 16.4604 38.4801C17.6312 38.2635 18.511 37.3005 18.6094 36.1278C18.852 34.0459 20.4455 32.3661 22.5331 31.9917H22.5331Z" fill="#892E24"/>
<path fill-rule="evenodd" clip-rule="evenodd" d="M30.7071 36.4095C30.9219 37.6908 31.5175 38.8627 32.4044 39.7495C32.8535 39.5236 33.5558 39.4431 34.5117 39.5078C35.7508 39.5578 36.8173 39.3111 37.8046 38.6243C38.5669 38.0304 37.5861 37.3202 36.7023 37.529C35.9532 37.6745 35.2662 37.574 34.6414 37.2278C33.4002 36.5402 32.5042 34.9499 30.707 36.4095H30.7071Z" fill="#FADBB5"/>
<path fill-rule="evenodd" clip-rule="evenodd" d="M32.5059 36.9858C32.5359 38.4715 33.8951 39.11 36.5838 38.9017C38.429 38.2751 37.2352 37.6738 36.0461 37.9641C35.543 38.0869 35.1516 38.4915 34.6046 38.3941C34.2942 38.339 34.0225 38.1554 33.8578 37.8897C33.4312 37.2217 32.9805 36.9204 32.5059 36.9858Z" fill="#FAC490"/>
<path fill-rule="evenodd" clip-rule="evenodd" d="M36.4478 38.9586C35.9786 39.1249 35.35 39.194 34.5617 39.1655C34.0832 39.1451 33.6044 39.169 33.1296 39.2372C32.8505 37.7949 32.7109 37.0737 32.7109 37.0737C33.2538 38.2931 34.4497 38.895 35.5641 38.5096C36.5961 38.197 37.1339 38.7074 36.4478 38.9587V38.9586Z" fill="#F6A962"/>
<path fill-rule="evenodd" clip-rule="evenodd" d="M31.4323 36.3836C25.24 39.1323 21.9854 41.3366 21.6523 42.7977C21.7663 42.7411 21.886 42.6998 22.0083 42.6738C22.1548 42.6175 22.3057 42.5857 22.4562 42.5765C22.5403 42.5613 22.6253 42.5531 22.7103 42.5521C22.7767 42.5317 22.8411 42.5181 22.9089 42.5047C22.9212 42.4998 22.9335 42.495 22.946 42.4903C23.0227 42.4618 23.1004 42.431 23.1781 42.4055C23.3511 42.3484 23.5133 42.2875 23.694 42.2577C23.8135 42.2184 23.9198 42.1847 24.0464 42.1669L24.0428 42.1673C24.1094 42.1426 24.1731 42.1231 24.2413 42.1039L24.348 42.057C24.4784 41.9997 24.5962 41.9714 24.7342 41.9442C24.7602 41.9332 24.786 41.9226 24.8126 41.9127L25.1723 41.7795C25.3554 41.7116 25.5436 41.6816 25.7279 41.6854H25.787C26.2644 41.6854 26.6537 41.9189 26.9272 42.2633C30.7945 40.963 32.7147 40.0851 32.7147 40.0851C34.4027 39.3345 32.6527 35.818 31.4324 36.3835L31.4323 36.3836Z" fill="#9F3E26"/>
<path fill-rule="evenodd" clip-rule="evenodd" d="M30.6733 38.209C27.1802 38.1757 24.903 39.8585 23.8418 43.2573C23.8418 43.2573 24.8698 42.9279 26.9261 42.2692C26.9854 42.1851 27.0213 42.0457 27.0336 41.8511C27.1581 40.6542 28.1895 39.7508 29.4072 39.772C29.8111 39.8009 30.2034 39.6316 30.4565 39.3194C30.7093 39.007 30.7905 38.5918 30.6733 38.209H30.6733Z" fill="#973526"/>
<path fill-rule="evenodd" clip-rule="evenodd" d="M21.4062 43.2678C21.6651 43.7062 21.8051 43.9063 21.8263 43.8678C21.686 43.9103 22.4952 43.6653 24.2537 43.1328C25.407 42.769 26.3469 41.9345 26.8358 40.8406C27.3289 39.4713 28.7034 38.6104 30.1675 38.7539C30.755 38.8017 31.3146 38.4987 31.5901 37.984C31.8656 37.4692 31.8038 36.8418 31.433 36.3892C24.8326 40.2281 21.4904 42.521 21.4063 43.2677L21.4062 43.2678Z" fill="#892E24"/>
<path fill-rule="evenodd" clip-rule="evenodd" d="M21.9868 43.3997C21.9261 43.5514 21.9485 43.6831 22.0095 43.8094C19.914 44.4807 18.4639 44.3359 17.1864 43.2444C16.6465 42.7831 16.3221 42.2053 16.1176 41.6128C15.3713 39.4494 20.1152 36.1709 23.0073 32.8955C28.3434 34.7634 31.0789 35.4656 31.9752 34.9153C31.9089 36.4586 30.7897 37.7921 29.1904 38.2337C26.0599 40.3885 24.0398 41.7792 23.1297 42.4057C22.7855 42.6425 22.1336 43.0329 21.9868 43.3997H21.9868Z" fill="#B64928"/>
<path fill-rule="evenodd" clip-rule="evenodd" d="M23.4039 33.0332C26.5565 34.962 29.2654 35.8045 31.5305 35.5604C31.5725 35.79 31.501 36.0256 31.3379 36.1941C31.1748 36.3627 30.9399 36.4442 30.7058 36.4132C30.2151 36.3321 29.7751 36.4775 29.4879 36.8441C28.9189 37.6578 27.9461 38.1002 26.9503 37.9985C25.9544 37.8967 25.0939 37.2669 24.7055 36.3554C24.4106 35.6685 24.1179 35.1196 23.8274 34.7089C23.2997 34.0385 23.1586 33.48 23.4039 33.0332H23.4039Z" fill="#973526"/>
<path fill-rule="evenodd" clip-rule="evenodd" d="M24.9215 31.832C27.3792 33.3357 29.5668 34.1784 31.4851 34.3614C31.3854 34.6593 31.3845 34.9823 31.4822 35.2807C31.2982 35.3555 31.1361 35.4764 31.0056 35.6429C30.4364 36.4566 29.4637 36.8991 28.4678 36.7973C27.472 36.6956 26.6116 36.0656 26.2232 35.1543C25.9281 34.4673 25.6356 33.9184 25.3451 33.5076C24.8174 32.8373 24.6761 32.2789 24.9215 31.832H24.9215Z" fill="#7F2F23"/>
<path fill-rule="evenodd" clip-rule="evenodd" d="M19.2051 25.4486C19.296 25.9246 19.6252 26.2979 20.0579 26.4155C20.4904 26.5332 20.9539 26.3755 21.2583 26.0068C21.2463 25.8572 20.967 23.4187 20.4204 18.6909C20.1876 19.0946 20.0187 19.7517 19.9125 20.662C19.4413 23.8535 19.2051 25.4486 19.2051 25.4486L19.2051 25.4486Z" fill="#FBCD6D"/>
<path fill-rule="evenodd" clip-rule="evenodd" d="M20.5692 31.589C23.4087 33.0959 25.9733 35.8136 29.2988 36.0662C32.8361 36.335 33.2553 34.1198 33.1401 30.3829C33.0175 26.4134 32.0558 21.9525 31.0222 17.3189C30.4705 16.8547 29.3045 16.105 27.6827 15.3687C23.9958 16.3624 21.902 17.1931 21.2424 17.5617C20.3936 18.2887 20.0433 19.3878 20.1914 20.8592C20.4212 23.3314 20.7721 25.6011 20.7095 27.5878C20.6626 29.0795 20.4809 28.891 19.7105 30.0664C19.2037 30.8394 19.9351 31.2526 20.5692 31.589H20.5692Z" fill="#F7B239"/>
<path fill-rule="evenodd" clip-rule="evenodd" d="M19.1148 24.8593C20.0278 24.9951 19.5207 26.6562 18.8947 27.316C17.9304 27.8686 16.6529 27.8261 15.7075 27.2425C14.1483 26.2799 13.96 24.0066 14.8339 23.3834C15.1941 23.1266 15.8777 23.0921 16.434 23.661C17.4563 24.6978 18.0071 24.7226 17.9086 23.8844C17.8991 23.753 17.8757 23.6232 17.8385 23.4966C17.7064 23.131 18.2188 22.8243 18.684 23.6851C18.9008 24.0464 19.0469 24.4448 19.1148 24.8594V24.8593Z" fill="#FBD1A0"/>
<path fill-rule="evenodd" clip-rule="evenodd" d="M24.5927 14.4239C22.8224 15.3866 21.9659 16.5955 21.9953 17.5871C21.9644 18.6188 22.5633 19.3199 23.533 19.3882C25.5408 19.5295 27.9168 17.7145 27.6825 15.3684C27.3459 15.1093 27.1144 15.0715 26.7773 15.043C26.516 15.2637 26.3683 15.3965 25.9976 15.3965C25.3512 15.3965 24.8009 14.9912 24.5927 14.4238L24.5927 14.4239Z" fill="#FCFDFE"/>
<path fill-rule="evenodd" clip-rule="evenodd" d="M25.9577 13.9331C23.4215 14.7247 22.1963 16.0865 22.2275 17.1398C22.203 17.9602 22.6792 18.5178 23.4504 18.5721C25.047 18.6844 26.9639 16.9086 26.7776 15.0429C26.4214 15.0826 26.1339 15.123 26.1339 15.123C26.0348 14.6226 25.9577 13.9331 25.9577 13.9331Z" fill="#FBD1A0"/>
<path fill-rule="evenodd" clip-rule="evenodd" d="M25.8137 14.9966C23.4355 16.1978 22.3159 17.0574 22.4549 17.5754C23.0332 18.6768 24.7745 18.077 25.0911 16.46C25.1368 16.0923 25.3904 15.7825 25.7449 15.6614C25.8865 15.6192 25.9886 15.497 26.0036 15.3517C26.0188 15.2063 25.9439 15.0662 25.8138 14.9966H25.8137Z" fill="#F9C186"/>
<path fill-rule="evenodd" clip-rule="evenodd" d="M25.8653 14.3643C22.8985 14.7886 21.799 15.7761 22.567 17.3267C23.3457 17.8706 24.1754 17.4215 25.056 15.9793C25.1622 15.792 25.3252 15.6606 25.5451 15.5849C25.8913 15.4822 25.998 15.0753 25.8654 14.3643H25.8653Z" fill="#F5A155"/>
<path fill-rule="evenodd" clip-rule="evenodd" d="M22.9288 16.8722C22.5778 16.1893 23.1271 15.723 24.5768 15.4731C23.9508 16.4937 23.4015 16.96 22.9288 16.8722Z" fill="#EE7738"/>
<path fill-rule="evenodd" clip-rule="evenodd" d="M20.9172 8.93968C20.3232 9.35697 19.8484 9.91889 19.5391 10.5709C18.5409 9.86608 19.0697 8.2693 20.1687 8.25021C20.3713 8.11526 20.6416 8.13631 20.8203 8.30094C20.9991 8.46566 21.0394 8.73048 20.9172 8.93968Z" fill="#D64426"/>
<path fill-rule="evenodd" clip-rule="evenodd" d="M20.692 8.32912C22.3091 7.37444 24.4199 7.67027 25.6745 9.02739C26.9289 10.3845 27.3738 12.4126 26.1566 13.7999C26.2332 14.5307 21.0181 19.3997 19.5441 14.5471C19.1824 13.5772 19.1633 12.7768 19.4875 12.146C19.6006 11.8969 19.6002 11.519 19.486 11.0124C19.1624 9.9606 19.6666 8.83894 20.692 8.32912Z" fill="#FCD19A"/>
<path fill-rule="evenodd" clip-rule="evenodd" d="M21.6445 8.89123C22.2787 8.97477 22.8481 9.3177 23.2137 9.83632C23.5794 10.3548 23.7075 11.0013 23.567 11.6178C23.3698 12.6018 23.446 13.2937 23.7953 13.694C24.019 13.9906 24.065 14.3826 23.916 14.7218C23.7672 15.0611 23.446 15.2958 23.0741 15.3374C23.181 15.8196 23.2344 16.0607 23.2344 16.0607C24.3409 15.5444 25.2768 14.7295 25.9345 13.71C26.9232 12.5287 26.916 10.8179 25.9172 9.64478C24.9184 8.47169 22.9922 8.13135 21.6446 8.89123H21.6445Z" fill="#F8B66C"/>
<path fill-rule="evenodd" clip-rule="evenodd" d="M25.7492 13.9842C25.7737 13.0268 25.786 12.5482 25.786 12.5482C26.3262 11.7793 26.3045 10.7543 25.7323 10.0084C25.1602 9.26233 24.1672 8.96443 23.2715 9.27016C23.7746 9.26312 24.2357 9.54593 24.4525 9.99422C24.6694 10.4425 24.6024 10.9745 24.2811 11.3568C23.9406 11.7498 23.9651 12.336 24.3375 12.6998C25.0859 13.3354 25.1988 14.439 24.5939 15.2096C25.0317 14.8527 25.42 14.4408 25.7492 13.9842V13.9842Z" fill="#F59E4C"/>
<path fill-rule="evenodd" clip-rule="evenodd" d="M25.3695 13.2667C25.8335 11.9669 26.6822 12.1607 26.4818 13.1878C26.4388 13.4808 26.6002 13.5402 27.0491 13.0396C27.0666 12.9951 27.0861 12.9541 27.1077 12.9115C27.1281 12.8368 27.1549 12.7648 27.1878 12.696C27.2002 12.6593 27.2141 12.6232 27.2296 12.588C27.2408 12.5574 27.2533 12.5274 27.2668 12.4981V12.4445C27.2668 12.3777 27.2717 12.3121 27.2815 12.248C27.2829 12.1752 27.2901 12.1038 27.3029 12.0343L27.3287 11.8818C27.3465 11.7767 27.3797 11.6776 27.4105 11.5758C27.4258 11.5253 27.4453 11.4747 27.4657 11.4245C27.4828 11.3552 27.5052 11.2885 27.5325 11.2246L27.5787 11.0788C27.6101 10.8979 27.6791 10.7296 27.7773 10.5821C27.7125 10.3746 27.6156 10.1671 27.4866 9.95984C26.4571 9.15024 25.1255 8.79841 23.7969 8.98493C24.1836 9.0038 24.5292 9.21194 24.7189 9.54001C25.297 10.5401 23.9681 11.0769 24.7801 11.7532C24.877 11.8352 24.9522 11.9308 25.0056 12.041C25.0854 12.0253 25.1663 12.0696 25.1941 12.1471C25.199 12.1577 25.2026 12.1692 25.2064 12.1803C25.2108 12.1911 25.2124 12.2009 25.2161 12.2111C25.2214 12.2219 25.2253 12.2336 25.231 12.2441C25.2863 12.3471 25.2179 12.472 25.1023 12.4842C25.1054 12.6809 25.0678 12.9066 24.9885 13.1641C24.8893 13.478 25.2203 13.6268 25.3695 13.2667H25.3695Z" fill="#D64426"/>
<path fill-rule="evenodd" clip-rule="evenodd" d="M19.7873 15.3769C19.4785 16.1505 19.7375 17.0325 20.4174 17.5228C20.8479 17.8332 21.3783 17.9366 21.875 17.8372C22.0123 17.7148 22.1727 17.6174 22.349 17.5519C22.3669 17.5434 22.3849 17.5352 22.4031 17.5273C22.4514 17.4556 22.5059 17.3882 22.5659 17.326C22.6133 17.2449 22.668 17.1695 22.7287 17.1002C22.7667 17.0494 22.8076 17.0015 22.8514 16.9566C22.8435 16.9386 22.8363 16.9206 22.8294 16.9025L22.8139 16.8722L22.7689 16.9166V16.8105C22.7584 16.796 22.7481 16.7814 22.7382 16.7667L22.7098 16.7316C22.6672 16.6789 22.6288 16.6242 22.5946 16.5679C22.5436 16.5077 22.4951 16.4449 22.4462 16.3844C22.4348 16.3705 22.4238 16.3562 22.4131 16.3419C22.3878 16.313 22.3638 16.2834 22.341 16.2532C22.2903 16.1951 22.2447 16.134 22.2047 16.0707C21.7783 16.366 21.2159 16.391 20.7636 16.1319C20.4262 15.9386 20.1973 15.6141 20.1227 15.2491C20.0799 15.0382 19.8962 15.0879 19.7873 15.3769Z" fill="#D64426"/>
<path fill-rule="evenodd" clip-rule="evenodd" d="M25.9863 11.9136L27.1748 12.8964C27.3136 12.7302 27.4318 12.5638 27.5293 12.3975C27.5077 12.1166 27.5789 11.8455 27.7241 11.6061C27.7343 11.5613 27.7465 11.5174 27.7612 11.4745C27.7651 11.455 27.7694 11.4356 27.774 11.4165C27.7569 11.3639 27.7434 11.311 27.7331 11.258C27.7186 11.2004 27.7093 11.1448 27.7008 11.0862C27.6914 11.0463 27.684 11.0064 27.6784 10.9665C27.667 10.8862 27.6575 10.811 27.6575 10.7285V10.5552C26.743 10.2374 25.9736 9.97667 25.3496 9.77295C25.8547 9.80311 26.2865 10.1428 26.4291 10.6223C26.5717 11.1019 25.8384 11.2062 25.9864 11.9136L25.9863 11.9136Z" fill="#BF2E28"/>
<path fill-rule="evenodd" clip-rule="evenodd" d="M26.5059 10.2713C27.2535 10.1985 27.6796 10.3078 27.7839 10.5989C27.9693 11.2257 27.8652 11.9013 27.4995 12.4453C27.4142 12.422 27.3434 12.3631 27.3059 12.2839C27.2682 12.2048 27.2675 12.1134 27.304 12.0336C27.4492 11.6967 27.4457 11.3149 27.2943 10.9805C27.1429 10.6461 26.8571 10.389 26.5059 10.2714V10.2713Z" fill="#AD2827"/>
<path fill-rule="evenodd" clip-rule="evenodd" d="M20.0626 7.8474C19.682 8.34692 19.9816 8.56506 20.7697 8.70517C22.9177 9.1087 25.0259 9.70255 27.0944 10.4866C27.6354 10.686 27.8716 10.6904 27.8864 10.3903C27.9709 8.61906 27.655 7.4763 26.9388 6.96204C25.5693 5.936 22.2086 5.03707 21.1217 6.38014C20.4156 7.35835 20.0626 7.8474 20.0626 7.8474H20.0626Z" fill="#FBFAE8"/>
<path fill-rule="evenodd" clip-rule="evenodd" d="M22.9716 8.7351C22.8867 8.83895 23.0517 8.92842 23.3216 9.00425C24.2856 9.26747 25.1611 9.53749 25.9485 9.81437C26.0025 9.79145 26.0574 9.77225 26.1126 9.75684C26.1809 9.73103 26.2512 9.71067 26.323 9.69622C26.3514 9.68785 26.3794 9.6812 26.4079 9.67389C26.4272 9.66737 26.4467 9.66134 26.4661 9.65561C26.5499 9.61258 26.6357 9.57096 26.7251 9.541C26.7975 9.51153 26.8708 9.48443 26.9466 9.46496C26.9923 9.44955 27.0388 9.43512 27.0857 9.42361C27.1573 9.39358 27.2302 9.37013 27.3037 9.35311V8.84369C27.2988 8.8156 27.2949 8.78764 27.2919 8.75955C27.2846 8.72346 27.2787 8.68728 27.2743 8.65057C27.2717 8.63523 27.2693 8.61974 27.2673 8.6043C27.2441 8.54813 27.2252 8.49109 27.2103 8.43364C27.1686 8.34691 27.1202 8.26317 27.0852 8.17321C27.0417 8.06138 27.0178 8.01146 26.9489 7.91446C26.8901 7.83148 26.8426 7.74429 26.8056 7.6543C26.6571 7.46535 26.565 7.24079 26.5362 7.00706C26.5055 6.98658 26.4738 6.9665 26.4415 6.94684C25.6974 6.54835 25.4532 6.71824 25.7087 7.45656C25.8407 7.85759 25.7085 8.29761 25.3763 8.56251C25.0442 8.82748 24.5739 8.88813 24.2118 8.65072C23.6996 8.33547 23.3355 8.2895 22.9716 8.73515L22.9716 8.7351Z" fill="#FBECC8"/>
<path fill-rule="evenodd" clip-rule="evenodd" d="M27.3442 10.3457C26.4598 9.9976 25.8795 9.78027 25.6035 9.69386C26.0581 9.81646 26.5392 9.62099 26.775 9.21796C27.0107 8.8149 26.9418 8.3055 26.6071 7.97773C26.2892 7.72816 26.2173 7.27985 26.4415 6.94531C27.004 7.25579 27.3608 7.81437 27.5121 8.62131C27.6053 9.11888 27.6449 9.63799 27.631 10.1786C27.6297 10.2332 27.6191 10.2745 27.5992 10.3022C27.5675 10.3459 27.5214 10.367 27.4607 10.3656C27.4311 10.3662 27.3923 10.3596 27.3442 10.3458L27.3442 10.3457Z" fill="#FBE0B7"/>
<path d="M21.2287 6.48592C21.2962 6.39484 21.4258 6.37518 21.518 6.44192C21.6102 6.50867 21.6302 6.63672 21.5626 6.7278C21.3911 6.95826 21.2201 7.19498 21.0495 7.43773C20.8719 7.69057 20.696 7.94755 20.5218 8.2082C20.4591 8.30241 20.3311 8.32852 20.2358 8.26662C20.1404 8.20474 20.1139 8.07815 20.1766 7.98403C20.3605 7.70856 20.538 7.44899 20.7091 7.20555C20.8874 6.95184 21.0606 6.71194 21.2287 6.48592H21.2287Z" fill="#FCFDFE"/>
<path fill-rule="evenodd" clip-rule="evenodd" d="M25.0567 12.1682C25.0875 12.273 25.1034 12.3814 25.1038 12.4906C25.3108 12.499 25.4142 12.5032 25.4142 12.5032C25.5014 12.4818 25.5763 12.4269 25.6222 12.3506C25.6682 12.2743 25.6814 12.183 25.6588 12.097C25.2605 12.048 25.0598 12.0717 25.0566 12.1682H25.0567Z" fill="#AD2827"/>
<path fill-rule="evenodd" clip-rule="evenodd" d="M22.7557 15.2124C22.69 15.5894 22.4623 15.92 22.1313 16.1185C21.9922 16.2689 21.9633 16.4893 22.0592 16.6697C22.2182 16.9429 22.1995 17.2828 22.0116 17.5374C21.8235 17.7919 21.5013 17.9135 21.1895 17.8473C21.7463 17.9446 22.3089 17.7832 22.724 17.4251C22.7354 17.3817 22.7488 17.3391 22.764 17.2973C22.7799 17.2467 22.7982 17.1972 22.8194 17.1489C22.8365 17.1004 22.8561 17.0529 22.8781 17.0067C22.8935 16.9626 22.9111 16.9168 22.9294 16.8738C22.9358 16.8563 22.9426 16.839 22.9495 16.8219C22.9552 16.8002 22.9619 16.7788 22.9674 16.7572C23.001 16.624 23.052 16.4997 23.1174 16.3859C23.1324 16.3403 23.15 16.2968 23.1679 16.2525C23.1852 16.1839 23.2023 16.1183 23.227 16.0515C23.2491 15.9425 23.2835 15.8379 23.3286 15.739C23.2961 15.5553 23.2349 15.3749 23.1441 15.2044C23.1114 15.1478 23.0706 15.096 23.0228 15.051C22.9897 15.0192 22.9465 14.9999 22.9004 14.9966C22.8584 14.9961 22.821 15.0285 22.7882 15.0937C22.7729 15.1295 22.762 15.169 22.7557 15.2125L22.7557 15.2124Z" fill="#BF2E28"/>
<path fill-rule="evenodd" clip-rule="evenodd" d="M22.3145 17.6924C23.1236 17.3063 23.5334 16.4008 23.2852 15.5479C23.319 15.6844 23.2409 15.8237 23.1059 15.8682C22.6676 16.0611 22.4505 16.5525 22.6055 17.0011C22.6779 17.27 22.5586 17.5535 22.3145 17.6924V17.6924Z" fill="#AD2827"/>
<path fill-rule="evenodd" clip-rule="evenodd" d="M26.7949 11.8829C27.0209 12.0305 27.158 12.2756 27.1892 12.5517C27.22 12.8244 27.1455 13.1285 26.9688 13.4007C26.7921 13.6728 26.5515 13.8647 26.3104 13.9613C26.0725 14.0567 25.8329 14.0569 25.6418 13.9304C25.4505 13.8036 25.339 13.5711 25.3057 13.2969C25.2718 13.0192 25.3165 12.6999 25.458 12.4066C25.6 12.1134 25.8172 11.9044 26.0575 11.8106C26.3014 11.7155 26.5688 11.7352 26.7949 11.8829Z" fill="#FADBB5"/>
<path fill-rule="evenodd" clip-rule="evenodd" d="M26.6253 12.389C26.7492 12.47 26.8244 12.6045 26.8415 12.756C26.8584 12.9057 26.8176 13.0725 26.7207 13.2219C26.6238 13.3713 26.492 13.4765 26.3596 13.5296C26.2292 13.5818 26.0978 13.582 25.9931 13.5125C25.8881 13.443 25.827 13.3154 25.8086 13.1649C25.7902 13.0126 25.8146 12.8373 25.8922 12.6763C25.9701 12.5155 26.0891 12.4008 26.2211 12.3494C26.3547 12.2971 26.5014 12.3079 26.6253 12.389L26.6253 12.389Z" fill="#EB5F36"/>
<path fill-rule="evenodd" clip-rule="evenodd" d="M17.504 24.9937C17.488 25.8575 17.6158 26.7181 17.8817 27.5383C16.2024 27.9218 16.7935 25.7016 17.504 24.9937Z" fill="#F6AA73"/>
<path d="M14.7587 23.85C14.7973 23.7434 14.9159 23.6878 15.0239 23.7258C15.1317 23.7639 15.188 23.881 15.1494 23.9876C14.9705 24.4831 14.9781 24.9837 15.1205 25.436C15.2762 25.9298 15.5916 26.367 16.0011 26.6789C16.0916 26.7478 16.1083 26.8762 16.0384 26.9655C15.9687 27.0548 15.8386 27.0713 15.7483 27.0024C15.2725 26.64 14.906 26.1319 14.7249 25.5576C14.5569 25.024 14.5479 24.4338 14.7588 23.85L14.7587 23.85Z" fill="#FCEBD1"/>
<path fill-rule="evenodd" clip-rule="evenodd" d="M23.625 29.5254C29.7226 30.1194 32.7714 30.4165 32.7714 30.4165C32.8549 31.0733 32.6876 31.4065 32.2691 31.4163C31.925 31.4204 31.5909 31.5239 31.2664 31.7268C30.7644 32.0576 30.1492 32.1766 29.5578 32.0577C28.1009 31.7647 27.5887 29.7249 25.784 30.6036C25.3555 30.7928 24.8634 30.7813 24.4447 30.5721C24.0258 30.3629 23.7247 29.9784 23.625 29.5254V29.5254Z" fill="#E97E1D"/>
<path fill-rule="evenodd" clip-rule="evenodd" d="M21.7124 25.7713L21.0176 28.0141L21.5144 28.1273C21.5458 28.1345 21.5768 28.1427 21.6077 28.1519L22.0242 28.2753L22.3927 28.3561C22.5456 28.3897 22.6958 28.4529 22.8425 28.5072L23.226 28.5763C23.4212 28.6113 23.5967 28.6908 23.7797 28.763L24.0778 28.7898C24.1706 28.7982 24.2623 28.8152 24.3517 28.8402C24.5936 28.7524 24.8616 28.725 25.1335 28.7739L25.7319 28.8813L26.3151 28.9337C26.8568 28.9719 27.3973 29.0114 27.9386 29.0526C27.9664 29.0546 27.9941 29.0576 28.0216 29.0612L28.927 29.1804C29.2109 29.2178 29.4955 29.2605 29.779 29.3006L30.6717 29.4181L31.539 29.5252C31.5986 29.5252 31.6561 29.5267 31.7154 29.5325L32.0994 29.5705H32.1622L28.0205 18.8442C27.2616 19.0275 26.6387 19.5607 26.347 20.2767C26.0553 20.9925 26.1306 21.8034 26.5494 22.4548C26.9602 23.0739 26.9369 23.8802 26.4913 24.4751C25.196 26.2043 23.2987 23.9276 21.7124 25.7714V25.7713Z" fill="#E97E1D"/>
<path fill-rule="evenodd" clip-rule="evenodd" d="M27.9521 22.8027C28.8999 23.1962 29.4747 24.1567 29.3668 25.1665C29.2589 26.1765 28.4938 26.9972 27.4838 27.1866C26.4738 27.376 25.4575 26.8892 24.9824 25.9884C25.3387 25.7973 25.7963 25.7982 26.3551 25.9917C26.8417 26.1726 27.3908 26.0381 27.7353 25.6534C28.0798 25.2687 28.1481 24.714 27.9068 24.2589C27.6329 23.6777 27.6479 23.1923 27.9521 22.8027H27.9521Z" fill="#DB5425"/>
<path fill-rule="evenodd" clip-rule="evenodd" d="M22.1089 26.0835C23.0218 26.2192 22.5149 27.8803 21.8888 28.5401C20.9246 29.0928 19.647 29.0503 18.7016 28.4666C17.1425 27.504 16.9542 25.2308 17.828 24.6075C18.1882 24.3508 18.8718 24.3163 19.4281 24.885C20.4504 25.9219 21.0012 25.9468 20.9027 25.1086C20.8931 24.9772 20.8697 24.8472 20.8328 24.7208C20.7006 24.3551 21.213 24.0484 21.678 24.9093C21.8948 25.2706 22.041 25.6689 22.1089 26.0835V26.0835Z" fill="#FADBB5"/>
<path d="M17.7958 25.0145C17.8343 24.9079 17.953 24.8523 18.0609 24.8904C18.1688 24.9285 18.225 25.0455 18.1865 25.1522C18.0077 25.6476 18.0151 26.1483 18.1577 26.6005C18.3132 27.0944 18.6287 27.5316 19.0382 27.8434C19.1286 27.9125 19.1454 28.0408 19.0756 28.1301C19.0056 28.2194 18.8757 28.2359 18.7853 28.1669C18.3096 27.8046 17.9429 27.2965 17.762 26.7222C17.594 26.1886 17.5851 25.5983 17.7958 25.0145V25.0145Z" fill="#FCF5E4"/>
<path fill-rule="evenodd" clip-rule="evenodd" d="M22.0651 28.0893C22.4125 27.8978 22.5157 27.5603 22.3746 27.0771C22.0861 27.0933 21.897 27.2443 21.8071 27.5304C21.6628 27.9452 21.3252 28.2661 20.9 28.3924C20.6915 28.4517 20.7053 28.6291 20.9283 28.5931C21.3412 28.5131 21.7301 28.3408 22.0651 28.0893Z" fill="#F6A962"/>
<path fill-rule="evenodd" clip-rule="evenodd" d="M22.3533 25.6369C22.35 27.5131 22.012 28.7432 21.4121 29.1108C24.1304 29.6936 27.239 30.4276 30.4312 30.8464C32.0291 31.0425 33.75 30.8258 33.9822 28.9683C34.21 27.1444 33.7774 23.8118 32.4263 19.0987C32.009 17.6435 30.5898 16.7536 29.2714 17.036C27.9531 17.3183 27.0471 18.7221 27.3585 20.1841L28.4556 25.0193C28.6552 25.9401 28.3879 26.3228 27.6215 26.2481C25.8153 26.0984 24.0798 25.894 22.3533 25.6369V25.6369Z" fill="#FBCD6D"/>
<path fill-rule="evenodd" clip-rule="evenodd" d="M26.0706 29.5843C27.9434 30.0474 29.1883 30.2514 30.5338 30.3534C32.4231 30.4935 33.3143 29.9992 33.4412 28.7622C33.5382 26.7143 33.066 23.8394 32.0245 20.1375C30.9658 16.4498 28.38 22.269 30.5531 24.3404C32.8064 26.5659 32.2685 29.0822 30.4868 29.2087C29.7774 29.2442 29.07 29.108 28.4259 28.8122C27.4684 28.397 26.6165 28.4922 25.8702 29.0977C25.5935 29.3159 25.7024 29.4939 26.0706 29.5844L26.0706 29.5843Z" fill="#F5A244"/>
<path fill-rule="evenodd" clip-rule="evenodd" d="M5.06673 11.3501C5.17373 11.3501 5.26041 11.4359 5.26041 11.5416C5.26041 11.6474 5.17373 11.7332 5.06673 11.7332C4.95982 11.7332 4.87305 11.6474 4.87305 11.5416C4.87305 11.4359 4.95982 11.3501 5.06673 11.3501Z" fill="#FEFEFE"/>
<path fill-rule="evenodd" clip-rule="evenodd" d="M10.8679 10.9858C10.9698 10.9858 11.0523 11.0675 11.0523 11.1681C11.0523 11.2688 10.9698 11.3504 10.8679 11.3504C10.7661 11.3504 10.6836 11.2688 10.6836 11.1681C10.6836 11.0675 10.7661 10.9858 10.8679 10.9858Z" fill="#FEFEFE"/>
<path fill-rule="evenodd" clip-rule="evenodd" d="M9.0924 14.1079C9.1749 14.1079 9.24164 14.1741 9.24164 14.2557C9.24164 14.3375 9.17487 14.4037 9.0924 14.4037C9.0101 14.4037 8.94336 14.3375 8.94336 14.2557C8.94336 14.1741 9.01013 14.1079 9.0924 14.1079Z" fill="#FEFEFE"/>
<path fill-rule="evenodd" clip-rule="evenodd" d="M4.16707 7.61475C4.39631 7.61475 4.58208 7.79849 4.58208 8.02508C4.58208 8.25169 4.39631 8.43544 4.16707 8.43544C3.93775 8.43544 3.75195 8.25169 3.75195 8.02508C3.75195 7.79849 3.93775 7.61475 4.16707 7.61475Z" fill="#FEFEFE"/>
<path fill-rule="evenodd" clip-rule="evenodd" d="M16.9556 8.64209C17.0897 8.64209 17.1984 8.74955 17.1984 8.88215C17.1984 9.01465 17.0897 9.12204 16.9556 9.12204C16.8216 9.12204 16.7129 9.01465 16.7129 8.88215C16.7129 8.74955 16.8216 8.64209 16.9556 8.64209Z" fill="#FEFEFE"/>
<path fill-rule="evenodd" clip-rule="evenodd" d="M13.3502 2.53662C13.4584 2.53662 13.5461 2.6233 13.5461 2.73029C13.5461 2.83726 13.4584 2.92396 13.3502 2.92396C13.242 2.92396 13.1543 2.83726 13.1543 2.73029C13.1543 2.6233 13.242 2.53662 13.3502 2.53662Z" fill="#FEFEFE"/>
<path fill-rule="evenodd" clip-rule="evenodd" d="M11.4781 4.61678C10.4548 4.3337 9.38458 4.88248 9.03011 5.87203C8.67568 6.86151 9.15837 7.95313 10.1341 8.36874C11.1099 8.7844 12.2447 8.38178 12.73 7.44786C12.2012 7.80354 11.5084 7.81194 10.971 7.46923C10.4336 7.12651 10.1561 6.49923 10.2669 5.8769C10.3775 5.25456 10.8546 4.75808 11.4781 4.61678Z" fill="#FEFEFE"/>
</g>
<rect x="1" y="1" width="52" height="52" rx="11" stroke="white" stroke-width="2"/>
<defs>
<linearGradient id="paint0_linear_4941_806" x1="23.2031" y1="-9.043" x2="23.2031" y2="21.2092" gradientUnits="userSpaceOnUse">
<stop stop-color="#4A6C85"/>
<stop offset="1" stop-color="#64A0B3"/>
</linearGradient>
<linearGradient id="paint1_linear_4941_806" x1="11.9816" y1="37.0001" x2="11.7448" y2="5.34389" gradientUnits="userSpaceOnUse">
<stop stop-color="#AFC9E6"/>
<stop offset="1" stop-color="#91AECF"/>
</linearGradient>
<linearGradient id="paint2_linear_4941_806" x1="41.6165" y1="51.3378" x2="8.11262" y2="33.6899" gradientUnits="userSpaceOnUse">
<stop stop-color="#FEFEFE"/>
<stop offset="1" stop-color="#9FABD7"/>
</linearGradient>
<linearGradient id="paint3_linear_4941_806" x1="53.9462" y1="54.9403" x2="12.9917" y2="31.9781" gradientUnits="userSpaceOnUse">
<stop stop-color="#5A7CA7"/>
<stop offset="1" stop-color="#8AABD1"/>
</linearGradient>
<clipPath id="clip0_4941_806">
<rect x="2" y="2" width="50" height="50" rx="10" fill="white"/>
</clipPath>
</defs>
</svg>
