<svg width="148" height="52" viewBox="0 0 148 52" fill="none" xmlns="http://www.w3.org/2000/svg">
<g opacity="0.8">
<rect width="148" height="52" rx="8" fill="#070C1C"/>
<path d="M11.399 12.2116C11.0887 12.5701 10.8818 13.1675 10.8818 13.8843V40.2896C10.8818 41.0064 11.0887 41.6039 11.399 41.9623L11.5024 42.0818L24.3275 27.2662V27.1467V27.0272L11.399 12.2116Z" fill="url(#paint0_linear_4945_3183)"/>
<path d="M28.5657 32.2852L24.3252 27.3865V27.1475V27.028L28.5657 22.1293L28.6692 22.2488L33.7371 25.5942C35.1851 26.5501 35.1851 28.1033 33.7371 29.0592L28.5657 32.2852Z" fill="url(#paint1_linear_4945_3183)"/>
<path d="M28.6729 32.1643L24.3289 27.1461L11.4004 42.0812C11.9175 42.6786 12.6415 42.6786 13.5724 42.2007L28.6729 32.1643Z" fill="url(#paint2_linear_4945_3183)"/>
<path d="M28.6729 22.129L13.5724 12.2121C12.6415 11.6147 11.9175 11.7341 11.4004 12.3315L24.3289 27.1472L28.6729 22.129Z" fill="url(#paint3_linear_4945_3183)"/>
<path opacity="0.2" d="M28.5948 32.0476L13.5978 41.845C12.7703 42.4424 12.0463 42.3229 11.5292 41.845L11.4258 41.9645L11.5292 42.084C12.0463 42.5619 12.7703 42.6814 13.5978 42.084L28.5948 32.0476Z" fill="#070C1C"/>
<path opacity="0.12" d="M11.4249 41.8462C11.115 41.4877 11.0117 40.8903 11.0117 40.1735V40.2929C11.0117 41.0098 11.2183 41.6072 11.5282 41.9657V41.8462H11.4249Z" fill="#070C1C"/>
<path opacity="0.12" d="M33.7417 28.6994L28.5703 32.0448L28.6737 32.1643L33.7417 28.8188C34.4657 28.3409 34.776 27.7435 34.776 27.1461C34.776 27.7435 34.3623 28.2214 33.7417 28.6994Z" fill="#070C1C"/>
<path opacity="0.25" d="M13.5955 12.3348L33.7639 25.5972C34.3845 26.0751 34.7982 26.553 34.7982 27.1504C34.7982 26.553 34.4879 25.9556 33.7639 25.4777L13.5955 12.2153C12.1475 11.2595 11.0098 12.0958 11.0098 14.0075V14.127C11.0098 12.2153 12.1475 11.379 13.5955 12.3348Z" fill="#FEFEFE"/>
<path d="M75.5698 28.4298C72.9148 28.4298 70.8129 30.5124 70.8129 33.405C70.8129 36.1818 72.9148 38.3802 75.5698 38.3802C78.2247 38.3802 80.3266 36.2975 80.3266 33.405C80.3266 30.3967 78.2247 28.4298 75.5698 28.4298ZM75.5698 36.2975C74.1316 36.2975 72.9148 35.0248 72.9148 33.2893C72.9148 31.5537 74.1316 30.281 75.5698 30.281C77.0079 30.281 78.2247 31.438 78.2247 33.2893C78.2247 35.0248 77.0079 36.2975 75.5698 36.2975ZM65.2817 28.4298C62.6267 28.4298 60.5248 30.5124 60.5248 33.405C60.5248 36.1818 62.6267 38.3802 65.2817 38.3802C67.9367 38.3802 70.0385 36.2975 70.0385 33.405C70.0385 30.3967 67.9367 28.4298 65.2817 28.4298ZM65.2817 36.2975C63.8436 36.2975 62.6267 35.0248 62.6267 33.2893C62.6267 31.5537 63.8436 30.281 65.2817 30.281C66.7198 30.281 67.9367 31.438 67.9367 33.2893C67.9367 35.0248 66.7198 36.2975 65.2817 36.2975ZM53.0024 29.9339V32.0165H57.7592C57.6486 33.1736 57.2061 34.0992 56.653 34.6777C55.9892 35.3719 54.883 36.1818 53.0024 36.1818C50.0155 36.1818 47.803 33.7521 47.803 30.6281C47.803 27.5041 50.1262 25.0744 53.0024 25.0744C54.5511 25.0744 55.768 25.7686 56.653 26.5785L58.0911 25.0744C56.8742 23.9174 55.3255 22.9918 53.113 22.9918C49.1305 22.9918 45.7012 26.4628 45.7012 30.6281C45.7012 34.7934 49.1305 38.2645 53.113 38.2645C55.3255 38.2645 56.8742 37.5702 58.2017 36.0661C59.5292 34.6777 59.9717 32.7107 59.9717 31.2066C59.9717 30.7438 59.9717 30.281 59.8611 29.9339H53.0024ZM103.226 31.5537C102.783 30.3967 101.677 28.4298 99.2434 28.4298C96.8096 28.4298 94.8184 30.3967 94.8184 33.405C94.8184 36.1818 96.8096 38.3802 99.4646 38.3802C101.566 38.3802 102.894 36.9917 103.336 36.1818L101.788 35.0248C101.235 35.8347 100.571 36.4132 99.4646 36.4132C98.3584 36.4132 97.6946 35.9504 97.1415 34.9091L103.447 32.1322L103.226 31.5537ZM96.8096 33.1736C96.8096 31.3223 98.2478 30.281 99.2434 30.281C100.018 30.281 100.792 30.7438 101.013 31.3223L96.8096 33.1736ZM91.6103 37.9173H93.7122V23.4546H91.6103V37.9173ZM88.2916 29.4711C87.7384 28.8926 86.8535 28.3141 85.7472 28.3141C83.4241 28.3141 81.2116 30.5124 81.2116 33.2893C81.2116 36.0661 83.3135 38.1488 85.7472 38.1488C86.8535 38.1488 87.7384 37.5702 88.1809 36.9917H88.2916V37.6859C88.2916 39.5372 87.296 40.5785 85.7472 40.5785C84.5303 40.5785 83.6453 39.6529 83.4241 38.843L81.6541 39.6529C82.2072 40.9256 83.5347 42.5454 85.8578 42.5454C88.2916 42.5454 90.2828 41.0413 90.2828 37.4545V28.6612H88.2916V29.4711ZM85.8578 36.2975C84.4197 36.2975 83.2028 35.0248 83.2028 33.2893C83.2028 31.5537 84.4197 30.281 85.8578 30.281C87.2959 30.281 88.4022 31.5537 88.4022 33.2893C88.4022 35.0248 87.2959 36.2975 85.8578 36.2975ZM112.85 23.4546H107.872V37.9173H109.974V32.4793H112.85C115.173 32.4793 117.386 30.7438 117.386 27.967C117.386 25.1901 115.173 23.4546 112.85 23.4546ZM112.961 30.3967H109.974V25.4215H112.961C114.51 25.4215 115.395 26.8099 115.395 27.8513C115.284 29.124 114.399 30.3967 112.961 30.3967ZM125.683 28.3141C124.134 28.3141 122.585 29.0083 122.032 30.5124L123.913 31.3223C124.355 30.5124 125.019 30.281 125.793 30.281C126.899 30.281 127.895 30.9752 128.006 32.1322V32.2479C127.674 32.0165 126.789 31.6694 125.904 31.6694C123.913 31.6694 121.921 32.8265 121.921 34.9091C121.921 36.876 123.581 38.1488 125.351 38.1488C126.789 38.1488 127.453 37.4545 128.006 36.7603H128.116V37.9173H130.108V32.3636C129.886 29.8182 128.006 28.3141 125.683 28.3141ZM125.461 36.2975C124.798 36.2975 123.802 35.9504 123.802 35.0248C123.802 33.8678 125.019 33.5207 126.014 33.5207C126.899 33.5207 127.342 33.7521 127.895 33.9835C127.674 35.3719 126.568 36.2975 125.461 36.2975ZM137.077 28.6612L134.754 34.9091H134.643L132.209 28.6612H129.997L133.648 37.4545L131.546 42.314H133.648L139.289 28.6612H137.077ZM118.492 37.9173H120.594V23.4546H118.492V37.9173Z" fill="#FEFEFE"/>
<path d="M46.1778 20H45.4893V17.8083H46.0794C46.5712 17.3699 46.8663 16.4932 46.8663 15.2877V12H50.8007V17.8083H51.4893V20H50.8007V18.5754H46.2761V20H46.1778ZM47.5548 15.2877C47.5548 16.274 47.3581 17.1507 46.9647 17.8083H49.9155V12.8768H47.4565V15.2877H47.5548Z" fill="#FEFEFE"/>
<path d="M58.603 17.9839C57.9256 18.6613 57.1353 19 56.1191 19C55.103 19 54.3127 18.6613 53.6353 17.9839C52.9579 17.3065 52.6191 16.5162 52.6191 15.5C52.6191 14.4839 52.9579 13.6936 53.6353 13.0162C54.3127 12.3388 55.103 12 56.1191 12C57.1353 12 57.9256 12.3388 58.603 13.0162C59.2804 13.6936 59.6191 14.4839 59.6191 15.5C59.6191 16.5162 59.2804 17.3065 58.603 17.9839ZM54.3127 17.4194C54.7643 17.871 55.4417 18.2097 56.1191 18.2097C56.7966 18.2097 57.474 17.9839 57.9256 17.4194C58.3772 16.9678 58.7159 16.2904 58.7159 15.5C58.7159 14.7097 58.4901 14.0323 57.9256 13.5807C57.474 13.1291 56.7966 12.7904 56.1191 12.7904C55.4417 12.7904 54.7643 13.0162 54.3127 13.5807C53.8611 14.0323 53.5224 14.7097 53.5224 15.5C53.5224 16.2904 53.7482 16.9678 54.3127 17.4194Z" fill="#FEFEFE"/>
<path d="M64.1944 19C63.1944 19 62.4167 18.6613 61.75 17.9839C61.0833 17.3065 60.75 16.5162 60.75 15.5C60.75 14.4839 61.0833 13.6936 61.75 13.0162C62.4167 12.3388 63.1944 12 64.1944 12C65.1944 12 65.9722 12.3388 66.6389 13.1291L66.0833 13.6936C65.6389 13.1291 64.9722 12.7904 64.1944 12.7904C63.4167 12.7904 62.8611 13.0162 62.3056 13.5807C61.75 14.0323 61.5278 14.7097 61.5278 15.5C61.5278 16.2904 61.75 16.9678 62.3056 17.4194C62.75 17.871 63.4167 18.2097 64.1944 18.2097C64.9722 18.2097 65.6389 17.871 66.1944 17.1936L66.75 17.7581C66.4167 18.0968 66.0833 18.4355 65.6389 18.6613C65.1944 18.8871 64.75 19 64.1944 19Z" fill="#FEFEFE"/>
<path d="M70.5488 19H69.5732V12.8167H67.5V12H72.5V12.8167H70.4268V19H70.5488Z" fill="#FEFEFE"/>
<path d="M78.5 12.0001L76.1732 17.7378C75.8524 18.541 75.3178 19 74.6762 19C74.4624 19 74.2485 19 74.0346 18.8853L74.2485 18.082C74.3554 18.1968 74.5693 18.1968 74.6762 18.1968C74.8901 18.1968 74.997 18.1968 75.1039 18.082C75.2109 17.9673 75.3178 17.8525 75.4247 17.623L75.6386 17.0492L73.5 12H74.4624L76.0663 15.9017L77.5633 12L78.5 12.0001Z" fill="#FEFEFE"/>
<path d="M79.8789 19V12H83.8789V19H83.1347V12.8167H80.5301V19H79.8789Z" fill="#FEFEFE"/>
<path d="M85.2617 19V12H86.1313V15.0334H89.3922V12H90.2617V19H89.3922V15.85H86.1313V19H85.2617Z" fill="#FEFEFE"/>
<path d="M97.6274 17.9839C96.95 18.6613 96.1597 19 95.1436 19C94.1274 19 93.3371 18.6613 92.6597 17.9839C91.9823 17.3065 91.6436 16.5162 91.6436 15.5C91.6436 14.4839 91.9823 13.6936 92.6597 13.0162C93.3371 12.3388 94.1274 12 95.1436 12C96.1597 12 96.95 12.3388 97.6274 13.0162C98.3048 13.6936 98.6436 14.4839 98.6436 15.5C98.5307 16.5162 98.1919 17.3065 97.6274 17.9839ZM93.2242 17.4194C93.6758 17.871 94.3532 18.2097 95.0307 18.2097C95.7081 18.2097 96.3855 17.9839 96.8371 17.4194C97.2887 16.9678 97.6274 16.2904 97.6274 15.5C97.6274 14.7097 97.4016 14.0323 96.8371 13.5807C96.3855 13.1291 95.7081 12.7904 95.0307 12.7904C94.3532 12.7904 93.6758 13.0162 93.2242 13.5807C92.7726 14.0323 92.4339 14.7097 92.4339 15.5C92.4339 16.2904 92.7726 16.9678 93.2242 17.4194Z" fill="#FEFEFE"/>
<path d="M101 18.8853V12H103.683C104.293 12 104.78 12.2296 105.146 12.5738C105.512 12.9181 105.756 13.3771 105.756 13.9509C105.756 14.2951 105.634 14.5246 105.512 14.8689C105.39 15.0984 105.146 15.3279 104.78 15.4427C105.146 15.5574 105.39 15.7869 105.634 16.0164C105.878 16.2459 106 16.5902 106 17.0492C106 17.623 105.756 18.082 105.39 18.4263C104.902 18.7705 104.415 19 103.805 19H101V18.8853ZM101.976 14.9837H103.683C104.049 14.9837 104.293 14.8689 104.537 14.6394C104.78 14.4099 104.902 14.1804 104.902 13.9509C104.902 13.7214 104.78 13.4918 104.537 13.2623C104.293 13.0328 104.049 12.9181 103.683 12.9181H101.976V14.9837ZM101.976 18.082H103.927C104.293 18.082 104.537 17.9673 104.78 17.7378C105.024 17.5082 105.146 17.2787 105.146 16.9345C105.146 16.705 105.024 16.3607 104.78 16.1312C104.537 15.9017 104.293 15.7869 103.927 15.7869H102.098V18.082H101.976Z" fill="#FEFEFE"/>
</g>
<defs>
<linearGradient id="paint0_linear_4945_3183" x1="23.1895" y1="13.657" x2="3.34465" y2="30.8356" gradientUnits="userSpaceOnUse">
<stop stop-color="#00A0FF"/>
<stop offset="0.00657445" stop-color="#00A1FF"/>
<stop offset="0.2601" stop-color="#00BEFF"/>
<stop offset="0.5122" stop-color="#00D2FF"/>
<stop offset="0.7604" stop-color="#00DFFF"/>
<stop offset="1" stop-color="#00E3FF"/>
</linearGradient>
<linearGradient id="paint1_linear_4945_3183" x1="35.6344" y1="27.1492" x2="10.6081" y2="27.1492" gradientUnits="userSpaceOnUse">
<stop stop-color="#FFE000"/>
<stop offset="0.4087" stop-color="#FFBD00"/>
<stop offset="0.7754" stop-color="#FFA500"/>
<stop offset="1" stop-color="#FF9C00"/>
</linearGradient>
<linearGradient id="paint2_linear_4945_3183" x1="26.3219" y1="29.8895" x2="-0.589238" y2="53.1851" gradientUnits="userSpaceOnUse">
<stop stop-color="#FF3A44"/>
<stop offset="1" stop-color="#C31162"/>
</linearGradient>
<linearGradient id="paint3_linear_4945_3183" x1="8.19133" y1="3.46154" x2="20.2084" y2="13.8639" gradientUnits="userSpaceOnUse">
<stop stop-color="#32A071"/>
<stop offset="0.0685" stop-color="#2DA771"/>
<stop offset="0.4762" stop-color="#15CF74"/>
<stop offset="0.8009" stop-color="#06E775"/>
<stop offset="1" stop-color="#00F076"/>
</linearGradient>
</defs>
</svg>
