<svg width="64" height="56" viewBox="0 0 64 56" fill="none" xmlns="http://www.w3.org/2000/svg">
<path d="M34.1557 17.1916C34.2681 17.8576 33.7942 18.886 33.2568 19.5716C32.2579 20.8456 30.8376 21.9923 29.2544 22.8977C27.4143 23.9503 25.3295 24.765 23.5121 24.9213C22.2676 25.0284 21.088 24.8943 20.4769 24.1837C19.7858 28.8653 21.1572 28.9134 23.8054 28.8837C25.1371 28.8689 29.0681 27.9328 32.0713 26.056C34.5161 24.528 36.9406 22.6562 38.1436 20.2735C38.8152 18.9437 38.5276 17.2441 37.3493 16.557C35.3824 15.4103 32.5292 15.068 30.3242 15.3055C29.3848 15.4068 27.6584 15.9047 26.9071 16.2366C26.8531 17.455 27.7661 16.8343 28.3937 16.5101C28.9419 16.2272 29.5967 15.8742 30.3404 15.7523C32.0353 15.4742 33.9065 15.7159 34.1557 17.1916ZM26.7801 32.1449C24.2843 32.4991 23.4483 32.2921 22.154 31.5634L22.1222 31.5998C23.1215 33.1249 24.1175 33.8925 24.5466 34.1815C25.9519 35.1935 27.1996 35.1621 28.8215 34.9185C31.2211 34.5585 33.8786 33.416 36.1803 31.9857C38.7497 30.3895 40.7651 28.7208 42.4624 25.8267C42.9993 24.9111 43.066 23.7697 42.9483 23.2264C42.6807 21.986 41.9857 20.8493 41.2199 19.7265L41.1862 19.7482C41.5914 20.7181 41.5125 21.3152 41.2141 22.154C40.7616 23.426 39.8274 24.5011 38.7421 25.5645C37.3686 26.9103 35.8153 28.2894 34.1352 29.2637C31.9196 30.5484 28.8672 31.8489 26.7801 32.1449ZM30.1768 36.4396C30.8873 36.6844 33.3254 36.679 34.7813 36.2385C37.6771 35.3623 39.7159 34.022 41.0005 32.3045C41.5905 31.5157 42.6289 29.8845 42.8646 28.8199L42.8391 28.8175C41.398 31.3436 40.0565 32.4412 37.5192 34.073C34.8965 35.7599 31.6091 36.3464 30.1776 36.4045L30.1768 36.4396Z" fill="url(#paint0_linear_5135_6548)"/>
<path d="M32 3.36616C24.9009 8.82697 17.0611 13.2373 11.4373 18.7894C5.14196 25.0042 1.92827 30.9361 0.854279 40L0 39.9905C0.0720185 32.1194 1.77698 23.4235 8.00699 17.4708C14.4261 11.3378 23.4121 6.35585 31.4389 0H32.5611C40.5879 6.35585 49.5739 11.3378 55.9931 17.4708C62.223 23.4235 63.928 32.1194 64 39.9905L63.1457 40C62.0717 30.9361 58.858 25.0042 52.5627 18.7894C46.9389 13.2373 39.099 8.82697 32 3.36616Z" fill="url(#paint1_linear_5135_6548)"/>
<path d="M10.1543 44L12.3224 52.3333H10.6403L9.31952 46.9167H9.2946L7.50035 51.0952H6.34157L4.54732 46.9167H4.5224L3.18918 52.3333H1.51953L3.68758 44H4.93358L6.90227 48.7381H6.92719L8.90834 44H10.1543Z" fill="#D2A446"/>
<path d="M16.2728 50.9048H19.9111V52.3333H14.6779V44H19.8488V45.4286H16.2728V47.0952H19.5373V48.5H16.2728V50.9048Z" fill="#D2A446"/>
<path d="M29.3109 51.0833H30.2703V54H28.7751V52.5119H23.4422V54H21.9595V51.0833H22.9064C23.355 50.0833 23.5793 48.9087 23.5793 47.5595V44H29.3109V51.0833ZM25.1742 47.5357C25.1742 48.869 24.9665 50.0516 24.5512 51.0833H27.716V45.4286H25.1742V47.5357Z" fill="#D2A446"/>
<path d="M32.8297 44H34.4246V49.8095H34.437L38.6735 44H40.1562V52.3333H38.5613V46.5357H38.5489L34.3124 52.3333H32.8297V44Z" fill="#D2A446"/>
<path d="M49.0243 44H50.6192V52.3333H49.0243V48.6786H44.8876V52.3333H43.2927V44H44.8876V47.2262H49.0243V44Z" fill="#D2A446"/>
<path d="M59.7502 52.3333L59.0151 50.4405H55.4266L54.6914 52.3333H52.9221L56.4234 44H58.0183L61.5195 52.3333H59.7502ZM55.9499 49.0595H58.4917L57.2208 45.7857L55.9499 49.0595Z" fill="#D2A446"/>
<defs>
<linearGradient id="paint0_linear_5135_6548" x1="29.4295" y1="5.02124" x2="25.8205" y2="34.6843" gradientUnits="userSpaceOnUse">
<stop stop-color="#31DBB0"/>
<stop offset="1" stop-color="#1CA181"/>
</linearGradient>
<linearGradient id="paint1_linear_5135_6548" x1="32" y1="2.02874e-07" x2="28.8724" y2="33.1968" gradientUnits="userSpaceOnUse">
<stop stop-color="#31DBB0"/>
<stop offset="1" stop-color="#1CA080"/>
</linearGradient>
</defs>
</svg>
