<svg width="34" height="34" viewBox="0 0 34 34" fill="none" xmlns="http://www.w3.org/2000/svg">
<rect width="34" height="34" rx="17" fill="#D3D7DC"/>
<path d="M10.0999 16.027C14.3949 14.0513 17.2589 12.7487 18.6919 12.1194C22.7834 10.3226 23.6335 10.0105 24.1877 10.0001C24.3095 9.99794 24.582 10.0298 24.7586 10.1811C24.9076 10.3088 24.9486 10.4813 24.9683 10.6023C24.9879 10.7234 25.0123 10.9992 24.9929 11.2147C24.7712 13.6744 23.8118 19.6434 23.3237 22.3983C23.1172 23.564 22.7105 23.9548 22.3168 23.9931C21.4613 24.0762 20.8116 23.3961 19.9829 22.8226C18.6862 21.9251 17.9537 21.3664 16.695 20.4907C15.2404 19.4786 16.1834 18.9224 17.0124 18.0133C17.2293 17.7754 20.999 14.1552 21.0719 13.8268C21.0811 13.7857 21.0895 13.6326 21.0034 13.5517C20.9172 13.4709 20.7901 13.4985 20.6983 13.5205C20.5683 13.5517 18.4968 14.9973 14.4839 17.8573C13.8959 18.2836 13.3633 18.4913 12.8862 18.4805C12.3601 18.4685 11.3482 18.1664 10.596 17.9083C9.67333 17.5916 8.94002 17.4242 9.00388 16.8864C9.03714 16.6063 9.40248 16.3198 10.0999 16.027Z" fill="white"/>
</svg>
