<svg width="32" height="32" viewBox="0 0 32 32" fill="none" xmlns="http://www.w3.org/2000/svg">
<rect width="32" height="32" rx="16" fill="#D3D7DC"/>
<path d="M16.7113 21C11.2448 21 8.12787 17.253 8 11.008H10.7493C10.8372 15.5877 12.8511 17.5252 14.4496 17.9255V11.008H17.031V14.9552C18.6054 14.787 20.2677 12.9856 20.8272 11H23.4006C23.1908 12.0278 22.7716 13.0013 22.1693 13.8595C21.567 14.7177 20.7945 15.4423 19.9001 15.988C20.8982 16.4857 21.7797 17.1897 22.4864 18.0536C23.1931 18.9176 23.709 19.9218 24 21H21.1628C20.5554 19.1025 19.037 17.6293 17.031 17.4291V21H16.7193H16.7113Z" fill="white"/>
</svg>
